<svg width="27" height="27" viewBox="0 0 27 27" fill="none" xmlns="http://www.w3.org/2000/svg">
<path d="M5.34128 16L1 20.445L4.46992 22.5301L6.55499 26L11.9699 20.3102" stroke="#1A7FBD" stroke-width="1.5" stroke-linecap="round" stroke-linejoin="round"/>
<path d="M15.03 20.3102L20.445 26L22.53 22.5301L26 20.445L21.6587 16" stroke="#1A7FBD" stroke-width="1.5" stroke-linecap="round" stroke-linejoin="round"/>
<path d="M20.3724 3.84751C24.1691 7.64419 24.1691 13.8008 20.3724 17.5975C16.5757 21.3942 10.4191 21.3942 6.62241 17.5975C2.82573 13.8008 2.82573 7.64419 6.62241 3.84751C10.4191 0.0508302 16.5757 0.0508302 20.3724 3.84751" stroke="#1A7FBD" stroke-width="1.5" stroke-linecap="round" stroke-linejoin="round"/>
<path d="M13.4948 14.309L15.9896 15.6213C16.4772 15.8754 17.0425 15.4657 16.9492 14.921L16.472 12.141L18.4896 10.1752C18.8838 9.79138 18.666 9.1223 18.1214 9.0445L15.3309 8.63993L14.0861 6.10881C13.8423 5.61607 13.1421 5.61607 12.8983 6.10881L11.6535 8.63993L8.86307 9.0445C8.31847 9.1223 8.1058 9.79138 8.4948 10.1752L10.5124 12.141L10.0352 14.921C9.94188 15.4605 10.5124 15.8754 10.9948 15.6213L13.4896 14.309H13.4948Z" stroke="#1A7FBD" stroke-width="1.5" stroke-linecap="round" stroke-linejoin="round"/>
</svg>
