<svg width="27" height="27" viewBox="0 0 27 27" fill="none" xmlns="http://www.w3.org/2000/svg">
<path d="M10.7199 10.72H7.94497C7.17727 10.72 6.55493 11.3423 6.55493 12.11V14.8849C6.55493 15.6526 7.17727 16.275 7.94497 16.275H10.7199C11.4876 16.275 12.1099 15.6526 12.1099 14.8849V12.11C12.1099 11.3423 11.4876 10.72 10.7199 10.72Z" stroke="#1A7FBD" stroke-width="1.5" stroke-linecap="round" stroke-linejoin="round"/>
<path d="M16.28 11.415H20.445" stroke="#1A7FBD" stroke-width="1.5" stroke-linecap="round" stroke-linejoin="round"/>
<path d="M16.28 15.5852H20.445" stroke="#1A7FBD" stroke-width="1.5" stroke-linecap="round" stroke-linejoin="round"/>
<path d="M7.25 1V5.16494" stroke="#1A7FBD" stroke-width="1.5" stroke-linecap="round" stroke-linejoin="round"/>
<path d="M19.75 1V5.16494" stroke="#1A7FBD" stroke-width="1.5" stroke-linecap="round" stroke-linejoin="round"/>
<path d="M21.8351 3.08521H5.16494C2.86471 3.08521 1 4.94991 1 7.25014V21.8352C1 24.1354 2.86471 26.0001 5.16494 26.0001H21.8351C24.1353 26.0001 26 24.1354 26 21.8352V7.25014C26 4.94991 24.1353 3.08521 21.8351 3.08521Z" stroke="#1A7FBD" stroke-width="1.5" stroke-linecap="round" stroke-linejoin="round"/>
<path d="M20.445 20.4448H6.55493" stroke="#1A7FBD" stroke-width="1.5" stroke-linecap="round" stroke-linejoin="round"/>
</svg>
