<svg width="27" height="27" viewBox="0 0 27 18" fill="none" xmlns="http://www.w3.org/2000/svg">
<path d="M23.4906 6.14162C24.3881 7.0391 24.3881 8.49472 23.4906 9.3922C22.5931 10.2897 21.1375 10.2897 20.24 9.3922C19.3425 8.49472 19.3425 7.0391 20.24 6.14162C21.1375 5.24414 22.5931 5.24414 23.4906 6.14162Z" stroke="#1A7FBD" stroke-width="1.5" stroke-linecap="round" stroke-linejoin="round"/>
<path d="M16.0027 2.03813C17.3869 3.42231 17.3869 5.66378 16.0027 7.04349C14.6186 8.42767 12.3771 8.42767 10.9974 7.04349C9.61318 5.65932 9.61318 3.41784 10.9974 2.03813C12.3815 0.653956 14.623 0.653956 16.0027 2.03813Z" stroke="#1A7FBD" stroke-width="1.5" stroke-linecap="round" stroke-linejoin="round"/>
<path d="M6.75986 6.14162C7.65734 7.0391 7.65734 8.49472 6.75986 9.3922C5.86238 10.2897 4.40677 10.2897 3.50929 9.3922C2.61181 8.49472 2.61181 7.0391 3.50929 6.14162C4.40677 5.24414 5.86238 5.24414 6.75986 6.14162Z" stroke="#1A7FBD" stroke-width="1.5" stroke-linecap="round" stroke-linejoin="round"/>
<path d="M25.9999 16.9068V15.6611C25.9999 14.0938 24.7274 12.8213 23.1602 12.8213H22.2493" stroke="#1A7FBD" stroke-width="1.5" stroke-linecap="round" stroke-linejoin="round"/>
<path d="M1 16.9068V15.6611C1 14.0938 2.27254 12.8213 3.83979 12.8213H4.75065" stroke="#1A7FBD" stroke-width="1.5" stroke-linecap="round" stroke-linejoin="round"/>
<path d="M19.5658 16.9068V15.0895C19.5658 12.8927 17.7842 11.1111 15.5874 11.1111H11.4081C9.21127 11.1111 7.42969 12.8927 7.42969 15.0895V16.9068" stroke="#1A7FBD" stroke-width="1.5" stroke-linecap="round" stroke-linejoin="round"/>
</svg>
