<svg width="16" height="16" viewBox="0 0 16 16" fill="none" xmlns="http://www.w3.org/2000/svg">
<path fill-rule="evenodd" clip-rule="evenodd" d="M1.71429 0H14.2857C14.7404 0 15.1764 0.178682 15.4979 0.496739C15.8194 0.814795 16 1.24617 16 1.69597V14.304C16 14.7538 15.8194 15.1852 15.4979 15.5033C15.1764 15.8213 14.7404 16 14.2857 16H1.71429C1.25963 16 0.823594 15.8213 0.502103 15.5033C0.180612 15.1852 0 14.7538 0 14.304V1.69597C0 1.24617 0.180612 0.814795 0.502103 0.496739C0.823594 0.178682 1.25963 0 1.71429 0ZM10.4383 2.67903C10.3132 2.67058 10.1922 2.66681 10.076 2.66928C9.72736 2.67667 9.41884 2.73344 9.15018 2.83906C8.10409 3.244 7.57304 4.04288 7.57304 5.29797V7.03872H6.10526V9.06636H7.57304V14.7111H9.68729V9.06635H11.7683L11.8543 7.03872H9.68729V5.55167C9.70676 4.87538 9.92338 4.64265 10.5232 4.65592H11.8025L11.8543 2.76295C11.378 2.72106 10.8979 2.67966 10.4383 2.67903Z" fill="white"/>
</svg>
