<svg width="13" height="16" viewBox="0 0 13 13" fill="none" xmlns="http://www.w3.org/2000/svg">
<path d="M6.50015 3.86393C6.71397 3.86393 6.91904 3.78371 7.07024 3.64094C7.22143 3.49816 7.30638 3.30451 7.30638 3.10259C7.30638 2.90067 7.22143 2.70702 7.07024 2.56424C6.91904 2.42146 6.71397 2.34124 6.50015 2.34124C6.28632 2.34124 6.08125 2.42146 5.93006 2.56424C5.77886 2.70702 5.69392 2.90067 5.69392 3.10259C5.69392 3.30451 5.77886 3.49816 5.93006 3.64094C6.08125 3.78371 6.28632 3.86393 6.50015 3.86393ZM7.29133 0.265322C7.0677 0.0937006 6.78831 1.52588e-05 6.50015 1.52588e-05C6.21198 1.52588e-05 5.9326 0.0937006 5.70897 0.265322L0.331956 4.39179C-0.321627 4.89529 0.0546128 5.89417 0.897391 5.89417H1.12529V10.1577C0.486752 10.4653 0.0503128 11.0916 0.0503128 11.8154V12.4925C0.0503128 12.6271 0.106941 12.7562 0.207739 12.8514C0.308537 12.9465 0.445249 13 0.587799 13H12.4125C12.555 13 12.6918 12.9465 12.7926 12.8514C12.8934 12.7562 12.95 12.6271 12.95 12.4925V11.8154C12.95 11.0926 12.5135 10.4653 11.875 10.1577V5.89417H12.1029C12.9457 5.89417 13.3219 4.89427 12.6673 4.39179L7.2924 0.264307L7.29133 0.265322ZM6.38835 1.05306C6.4203 1.02866 6.46014 1.01536 6.50122 1.01536C6.54231 1.01536 6.58215 1.02866 6.61409 1.05306L11.5966 4.87905H1.40263L6.38835 1.05204V1.05306ZM10.8 9.95465H9.72506V5.89417H10.8V9.95465ZM8.65009 9.95465H7.03763V5.89417H8.65009V9.95465ZM5.96266 9.95465H4.3502V5.89417H5.96266V9.95465ZM10.9796 10.9698C11.474 10.9698 11.875 11.3484 11.875 11.8154V11.9849H1.12529V11.8154C1.12529 11.3484 1.52625 10.9698 2.02074 10.9698H10.9796ZM3.27523 9.95465H2.20026V5.89417H3.27523V9.95465Z" fill="#1A7FBD"/>
</svg>
