<svg width="27" height="26" viewBox="0 0 27 26" fill="none" xmlns="http://www.w3.org/2000/svg">
<path d="M12.8434 15.4683C11.3927 15.4683 10.2134 14.289 10.2134 12.8383C10.2134 11.3876 11.3927 10.2083 12.8434 10.2083" stroke="#1A7FBD" stroke-width="1.5" stroke-linecap="round" stroke-linejoin="round"/>
<path d="M21.01 10.2083H25.3412C25.7065 10.2083 25.9988 10.5005 25.9988 10.8658C25.9988 10.991 25.9622 11.111 25.8996 11.2154L24.882 12.8383L25.8996 14.4612C26.0927 14.7691 25.9987 15.1761 25.6909 15.3692C25.5865 15.437 25.4665 15.4683 25.3412 15.4683H21.01C20.8378 15.4683 20.6708 15.4005 20.5456 15.2752L18.1086 12.8383L20.5456 10.4013C20.6708 10.2761 20.8378 10.2083 21.01 10.2083Z" stroke="#1A7FBD" stroke-width="1.5" stroke-linecap="round" stroke-linejoin="round"/>
<path d="M15.4734 12.8381H18.1086" stroke="#1A7FBD" stroke-width="1.5" stroke-linecap="round" stroke-linejoin="round"/>
<path d="M17.8007 7.57817C14.8941 4.83333 10.3176 4.96901 7.5728 7.87562C4.82796 10.7822 4.96364 15.3587 7.87025 18.1036C10.6568 20.7336 15.0141 20.7336 17.8007 18.1036" stroke="#1A7FBD" stroke-width="1.5" stroke-linecap="round" stroke-linejoin="round"/>
<path d="M22.6851 6.26303C19.0531 0.825525 11.7005 -0.635614 6.26303 2.99635C0.825525 6.62831 -0.635613 13.9809 2.99635 19.4184C6.62831 24.856 13.981 26.3171 19.4185 22.6851C20.7126 21.8189 21.8189 20.7126 22.6851 19.4184" stroke="#1A7FBD" stroke-width="1.5" stroke-linecap="round" stroke-linejoin="round"/>
</svg>
