<svg width="15" height="16" viewBox="0 0 15 16" fill="none" xmlns="http://www.w3.org/2000/svg">
<path d="M7.5 6.02989C7.1468 6.03003 6.80158 6.14068 6.50797 6.34786C6.21436 6.55503 5.98556 6.84942 5.85049 7.19381C5.71542 7.5382 5.68014 7.91711 5.74913 8.28265C5.81812 8.64819 5.98826 8.98394 6.23806 9.24744C6.48785 9.51095 6.80608 9.69037 7.1525 9.76303C7.49892 9.8357 7.85797 9.79833 8.18427 9.65567C8.51057 9.513 8.78946 9.27144 8.98567 8.96153C9.18188 8.65161 9.28661 8.28726 9.28661 7.91454C9.28625 7.4147 9.09789 6.93544 8.76289 6.58206C8.42789 6.22868 7.97367 6.03008 7.5 6.02989ZM11.6756 4.58125C11.5846 4.3381 11.4473 4.11727 11.2722 3.93244C11.097 3.7476 10.8878 3.60272 10.6574 3.50678C9.95424 3.21387 8.28013 3.27959 7.5 3.27959C6.71987 3.27959 5.04743 3.2114 4.3423 3.50678C4.11189 3.60272 3.90262 3.7476 3.72747 3.93244C3.55232 4.11727 3.41503 4.3381 3.32411 4.58125C3.04688 5.32324 3.10882 7.09164 3.10882 7.91419C3.10882 8.73674 3.04688 10.503 3.32545 11.2475C3.41637 11.4906 3.55366 11.7115 3.72881 11.8963C3.90396 12.0811 4.11323 12.226 4.34364 12.322C5.04676 12.6149 6.72087 12.5491 7.50134 12.5491C8.28181 12.5491 9.95357 12.6173 10.6587 12.322C10.8891 12.226 11.0984 12.0811 11.2735 11.8963C11.4487 11.7115 11.586 11.4906 11.6769 11.2475C11.9565 10.5055 11.8922 8.73709 11.8922 7.91454C11.8922 7.092 11.9565 5.32606 11.6769 4.5816L11.6756 4.58125ZM7.5 10.8118C6.95698 10.8118 6.42616 10.6419 5.97466 10.3236C5.52316 10.0052 5.17126 9.5527 4.96346 9.02329C4.75565 8.49388 4.70128 7.91133 4.80722 7.34931C4.91316 6.78729 5.17464 6.27104 5.55861 5.86585C5.94258 5.46066 6.43179 5.18472 6.96437 5.07293C7.49695 4.96113 8.04899 5.01851 8.55067 5.2378C9.05235 5.45709 9.48115 5.82844 9.78283 6.3049C10.0845 6.78135 10.2455 7.34151 10.2455 7.91454C10.246 8.29515 10.1753 8.67211 10.0374 9.02384C9.89962 9.37556 9.6974 9.69514 9.44237 9.96427C9.18734 10.2334 8.88449 10.4468 8.55119 10.5922C8.21789 10.7377 7.86067 10.8123 7.5 10.8118ZM10.3587 5.57198C10.2319 5.57205 10.108 5.53245 10.0026 5.45818C9.89715 5.38391 9.81496 5.27832 9.7664 5.15475C9.71784 5.03119 9.70511 4.8952 9.7298 4.76399C9.75449 4.63279 9.81549 4.51225 9.9051 4.41764C9.99471 4.32303 10.1089 4.25858 10.2332 4.23246C10.3575 4.20634 10.4864 4.21971 10.6035 4.27089C10.7207 4.32206 10.8208 4.40874 10.8912 4.51996C10.9616 4.63118 10.9992 4.76194 10.9992 4.89571C10.9996 4.98454 10.9833 5.07257 10.9513 5.15475C10.9194 5.23693 10.8724 5.31165 10.813 5.37461C10.7536 5.43757 10.683 5.48754 10.6053 5.52165C10.5276 5.55576 10.4442 5.57335 10.36 5.57339L10.3587 5.57198ZM13.3929 0H1.60714C1.1809 0 0.772119 0.178683 0.470721 0.496739C0.169324 0.814796 0 1.24617 0 1.69597V14.304C0 14.7538 0.169324 15.1852 0.470721 15.5033C0.772119 15.8213 1.1809 16 1.60714 16H13.3929C13.8191 16 14.2279 15.8213 14.5293 15.5033C14.8307 15.1852 15 14.7538 15 14.304V1.69597C15 1.24617 14.8307 0.814796 14.5293 0.496739C14.2279 0.178683 13.8191 0 13.3929 0ZM12.8196 10.2465C12.7765 11.1521 12.5806 11.9545 11.9541 12.6138C11.3277 13.2731 10.568 13.4841 9.71083 13.5272C8.82656 13.5798 6.17545 13.5798 5.29118 13.5272C4.43304 13.4816 3.67533 13.2745 3.04788 12.6138C2.42042 11.9531 2.22321 11.1503 2.18237 10.2465C2.13248 9.31302 2.13248 6.51501 2.18237 5.58258C2.22556 4.677 2.41908 3.87459 3.04788 3.21528C3.67667 2.55597 4.43638 2.34751 5.29118 2.3044C6.17545 2.25176 8.82656 2.25176 9.71083 2.3044C10.569 2.34998 11.329 2.55703 11.9541 3.21776C12.5792 3.87848 12.7788 4.68124 12.8196 5.58682C12.8695 6.51678 12.8695 9.31231 12.8196 10.2465Z" fill="white"/>
</svg>
