<svg width="16" height="16" viewBox="0 0 16 16" fill="none" xmlns="http://www.w3.org/2000/svg">
<path fill-rule="evenodd" clip-rule="evenodd" d="M1.71429 0H14.2857C14.7404 0 15.1764 0.178682 15.4979 0.496739C15.8194 0.814796 16 1.24617 16 1.69597V14.304C16 14.7538 15.8194 15.1852 15.4979 15.5033C15.1764 15.8213 14.7404 16 14.2857 16H1.71429C1.25963 16 0.823594 15.8213 0.502103 15.5033C0.180612 15.1852 0 14.7538 0 14.304V1.69597C0 1.24617 0.180612 0.814796 0.502103 0.496739C0.823594 0.178682 1.25963 0 1.71429 0ZM5.05664 6.18664H2.75684V13.1321H5.05664V6.18664ZM3.92383 2.83978C4.55756 2.8469 5.18183 3.28374 5.20899 4.03996C5.22253 4.71241 4.63604 5.2246 3.90723 5.24015H3.88965C3.26223 5.23291 2.64949 4.78511 2.62109 4.03996C2.63004 3.375 3.18945 2.85555 3.92383 2.83978ZM12.6172 6.77796C12.0769 6.2277 11.4194 6.02117 10.7227 6.01686C10.2119 6.0254 9.73864 6.13308 9.34471 6.41398C9.05429 6.6258 8.83779 6.88889 8.64257 7.1663V6.18664H6.34277C6.35405 6.37816 6.35937 6.74988 6.35937 7.30193C6.36295 8.92011 6.35516 10.5382 6.34738 12.1563C6.34581 12.4815 6.34425 12.8068 6.34277 13.1321H8.64257V9.24467C8.64596 9.05085 8.65623 8.85655 8.72753 8.68751C8.98873 8.16233 9.37019 7.84826 9.91113 7.8425C10.8341 7.87069 11.073 8.71766 11.0781 9.41445V13.1321H13.3789V9.14319C13.3588 8.26621 13.1786 7.40358 12.6172 6.77796Z" fill="white"/>
</svg>
