<svg width="14" height="16" viewBox="0 0 14 11" fill="none" xmlns="http://www.w3.org/2000/svg">
<path d="M0 1.83335C0 0.820718 0.783399 1.52588e-05 1.75 1.52588e-05H12.25C13.2152 1.52588e-05 14 0.820718 14 1.83335V9.16668C14 10.1779 13.2152 11 12.25 11H1.75C0.783399 11 0 10.1779 0 9.16668V1.83335ZM1.3125 1.83335V2.46642L6.0293 6.52267C6.59258 7.00965 7.40742 7.00965 7.9707 6.52267L12.6875 2.46642V1.80757C12.6875 1.58127 12.4906 1.34923 12.25 1.34923H1.75C1.50828 1.34923 1.3125 1.58127 1.3125 1.80757V1.83335ZM1.3125 4.24533V9.16668C1.3125 9.41877 1.50828 9.62502 1.75 9.62502H12.25C12.4906 9.62502 12.6875 9.41877 12.6875 9.16668V4.24533L8.80469 7.58543C7.75469 8.48778 6.24531 8.48778 5.1707 7.58543L1.3125 4.24533Z" fill="#1A7FBD"/>
</svg>
