<svg width="175" height="36" viewBox="0 0 175 36" fill="none" xmlns="http://www.w3.org/2000/svg">
<g clip-path="url(#clip0_1_170)">
<path d="M0.00656553 35.3946C0.00656553 29.9532 -0.00293639 24.5086 0.00339823 19.0672C0.00973284 12.8719 4.20958 7.97211 10.3732 7.01875C13.9047 6.47397 17.3254 6.80337 20.4484 8.68475C23.7392 10.6675 25.6016 13.6036 26.1115 17.3948C26.1368 17.5785 26.1463 17.7654 26.1717 17.9491C26.1812 18.0061 26.1875 18.06 26.2034 18.1993H30.6376C30.7801 17.512 30.9163 16.7931 31.081 16.0804C32.2941 10.8607 36.6016 7.09477 41.9544 6.82871C45.6728 6.64501 49.4039 6.73053 53.1286 6.71152C56.4195 6.69569 59.7135 6.71152 63.0043 6.71152H64.0907V0H70.2986V6.7717H111.375V12.3335H70.3683C70.3493 12.7484 70.3239 13.0525 70.3239 13.3534C70.3239 17.6197 70.3176 21.8893 70.3239 26.1556C70.3271 28.87 71.2995 29.817 74.0487 29.8202C75.8477 29.8202 77.6436 29.8202 79.5788 29.8202V35.3915H72.1293C71.5813 35.3915 71.0429 35.306 70.5045 35.1983H70.4981C67.7742 34.663 65.725 33.2219 64.7558 30.5962C64.3377 29.4623 64.1445 28.189 64.1255 26.9759C64.0527 22.4942 64.097 18.0093 64.097 13.5244C64.097 13.1665 64.097 12.8118 64.097 12.3842H62.9409C58.4085 12.3842 53.8729 12.3842 49.3405 12.3842C47.2596 12.3842 45.1787 12.3462 43.0978 12.4C39.6327 12.4887 36.8708 14.9275 36.4908 18.288H59.6121V23.8625H36.231C36.7473 24.8507 37.0609 25.6995 37.5803 26.3932C39.0246 28.3126 41.0327 29.1202 43.4177 29.117C48.5107 29.1075 53.6037 29.117 58.6968 29.117C59.0547 29.117 59.4094 29.117 59.8275 29.117V35.3946H43.8643C43.1643 35.3946 42.0241 35.3186 41.3304 35.2268H41.3241C36.1202 34.549 32.2054 30.9636 31.0842 25.8389C30.9416 25.1864 30.8118 24.5308 30.6851 23.9163H26.2825V35.3946H20.1316C20.1221 35.0874 20.1063 34.777 20.1063 34.4698C20.1063 29.4021 20.1411 24.3312 20.0905 19.2636C20.0493 15.1841 17.0752 12.2416 13.1065 12.2385C9.13791 12.2385 6.17014 15.1904 6.1448 19.2636C6.11313 24.6416 6.14481 30.0197 6.15431 35.3946H0.00656553Z" fill="white"/>
<path d="M115.733 35.3946C115.743 30.0767 115.733 24.7588 115.768 19.4409C115.797 15.0383 117.374 11.3263 121.244 9.00462C126.163 6.0527 131.31 6.01469 136.283 8.85259C140.122 11.0444 141.889 14.6266 141.956 18.9785C142.032 24.1095 141.975 29.2437 141.978 34.3779C141.978 34.7168 142 35.0557 142.009 35.3946H135.858C135.852 34.9607 135.843 34.5299 135.839 34.096C135.839 29.1487 135.868 24.2014 135.824 19.2572C135.792 15.9759 133.863 13.4389 130.898 12.5963C127.877 11.738 124.735 12.8561 123.031 15.3931C122.166 16.679 121.916 18.1201 121.913 19.6309C121.906 24.8855 121.891 30.1432 121.881 35.3978H115.73L115.733 35.3946Z" fill="white"/>
<path d="M97.1666 35.3947C96.4983 35.3947 95.83 35.3186 95.1775 35.1761C94.7278 35.0779 94.278 34.9766 93.8346 34.8467C88.2696 33.2251 84.415 29.1107 84.3739 23.0358C84.3644 21.4965 84.3739 19.9572 84.3739 18.3577H90.832C90.832 19.593 90.7813 20.7902 90.8478 21.9843C90.9048 23.0263 90.9523 24.1032 91.2501 25.0914C92.1971 28.2302 95.3359 30.1591 98.7186 29.8044C102.168 29.4433 104.809 26.9063 105.088 23.5869C105.205 22.2028 105.142 20.8061 105.161 19.4156C105.164 19.083 105.161 18.7505 105.161 18.2975H111.451C111.435 21.7024 111.847 25.0566 110.301 28.1954C108.297 32.2685 104.923 34.4571 100.511 35.2046H100.502C99.8936 35.3091 99.2792 35.3915 98.6616 35.3915H97.1666V35.3947Z" fill="white"/>
<path d="M160.687 35.2395C152.474 35.2426 146.396 29.437 146.317 21.1006C146.244 13.3312 151.803 6.8604 160.747 6.82556C168.988 6.79389 175.01 12.9131 175 21.2051C174.991 29.2089 168.836 35.2458 160.687 35.2395Z" fill="white"/>
</g>
<defs>
<clipPath id="clip0_1_170">
<rect width="175" height="35.3946" fill="white"/>
</clipPath>
</defs>
</svg>
