<svg width="206" height="27" viewBox="0 0 206 30" fill="none" xmlns="http://www.w3.org/2000/svg">
<path d="M52.8196 15.9434C53.3537 15.9899 53.6479 16.2149 53.4698 16.4399L53.8801 16.6028L53.9884 16.6494C54.12 16.6726 54.2594 16.6028 54.2903 16.4942L54.2516 16.4166L54.2052 16.3235C54.2439 16.2537 54.3522 16.1451 54.4451 16.083L54.5303 16.021L54.9173 15.8115L55.0798 15.6021C55.1882 15.7339 55.312 15.7805 55.3507 15.7107C55.3895 15.6408 55.5597 15.5167 55.7146 15.4314C55.8694 15.3461 56.3493 15.4702 56.388 15.4159C56.4267 15.3616 56.7208 15.3771 56.7595 15.2762L56.8988 15.2297H56.9298C56.9298 15.2297 57.371 15.0435 57.8354 14.8728L58.3231 14.9504H58.3695C58.4237 14.9659 58.5243 14.9116 58.594 14.8418C58.6636 14.772 58.9887 14.6323 59.1048 14.6556C59.2209 14.6789 59.7009 14.4694 59.9253 14.4074L60.1343 14.3763H60.204C60.2891 14.4151 60.4517 14.3841 60.56 14.3065C60.6684 14.2289 61.0554 13.9729 61.1793 13.9419C61.3031 13.9109 61.8682 13.7402 62.17 13.6549L62.4797 13.6316L62.7196 13.6161C62.9673 13.4764 63.2924 13.267 63.4317 13.1428C63.571 13.0187 64.1825 13.2437 64.3451 13.2127L64.4535 13.1351C64.5618 13.0497 64.6005 12.9101 64.7011 12.817L64.7244 12.7937C64.8637 12.8558 65.1888 12.8248 65.4597 12.7317C65.7306 12.6386 66.4273 12.3593 66.5201 12.4369C66.613 12.5145 67.1084 12.2817 67.3097 12.2041L67.4258 12.0878L67.7276 11.793C68.0373 11.9481 68.3159 12.0257 68.3469 11.9714V11.9171L68.3933 11.7697C68.5559 11.7542 68.7726 11.6921 68.8732 11.6223C68.9739 11.5525 69.3763 11.3741 69.5234 11.2499C69.6705 11.1258 70.1504 11.3818 70.1891 11.3508C70.2278 11.3198 70.5451 11.1724 70.8006 11.0637C71.056 10.9551 71.7294 10.6448 71.7449 10.6293C71.7604 10.6138 72.0236 10.5828 72.3177 10.5595C72.6118 10.5362 73.3704 10.2647 73.4323 10.2957C73.4942 10.3268 73.8193 10.2104 74.1135 10.0785C74.4076 9.94662 75.29 9.8768 75.3287 9.86904C75.3674 9.86128 75.468 9.7837 75.3829 9.75267C75.2978 9.72164 75.2823 9.53546 75.499 9.38806C75.7157 9.24066 76.4356 9.48115 76.4743 9.45788C76.513 9.4346 76.7529 9.33375 76.9155 9.26393C77.078 9.19411 77.6354 9.13205 77.7128 9.05447L77.7902 8.99241C77.8521 8.9381 77.9372 8.86828 78.0069 8.86828H78.2081C78.4326 8.92259 78.7345 8.8295 78.8893 8.67434L79.0518 8.62003L79.2763 8.54246C79.5704 8.55797 79.9962 8.61228 80.2284 8.65882C80.4606 8.70537 81.1959 8.28645 81.4823 8.13905C81.7687 7.99165 82.8292 8.14681 83.1001 8.20111L83.3323 8.02268C83.4484 7.93735 83.6032 7.86753 83.758 7.84425L83.9902 7.80547C84.2224 7.89856 84.5785 7.8908 84.772 7.78219L84.981 7.71237C85.0507 7.6891 85.19 7.8365 85.2906 7.82874L85.6157 7.81322C85.964 7.7434 86.3665 7.65807 86.5059 7.63479C86.6452 7.61152 87.0709 7.76668 87.2489 7.71237C87.427 7.65807 88.0771 7.80546 88.2552 7.81322L88.4177 7.79771H88.4951C88.5725 7.75116 88.8357 7.73565 89.0911 7.7434C89.3466 7.75116 90.2986 8.05371 90.7631 8.10802C91.2275 8.16232 92.9226 8.20887 93.4954 8.20111L93.867 8.58125C94.0295 8.74416 94.1921 8.75967 94.3856 8.60452L94.4088 8.589C94.5559 8.66658 94.7262 8.75192 94.7958 8.77519C94.8655 8.79846 95.059 8.77519 95.1828 8.75968C95.3067 8.74416 95.5699 8.95362 95.6937 9.04671C95.8175 9.13981 96.3207 9.5277 96.5684 9.66734C96.8161 9.80698 97.443 10.6215 97.683 11.025L98.039 11.3197L98.0623 11.343C98.0081 11.4284 98.0855 11.6921 98.2248 11.9326C98.3641 12.1731 98.6892 12.8636 98.7125 12.9101C98.7357 12.9566 98.8208 13.298 98.8905 13.554L98.9756 13.779C99.0298 13.9341 99.4246 13.9341 99.2543 14.2057L99.084 14.4772C99.3704 14.5548 99.6568 14.6866 99.7187 14.772C99.7806 14.8573 100.044 15.2607 100.152 15.4779L100.33 15.54L100.64 15.6486C101.019 15.7029 101.522 15.7572 101.762 15.7727C102.002 15.7882 102.792 15.765 102.993 15.8038L103.186 15.8348L103.349 15.8581C103.527 15.8658 103.829 15.827 104.022 15.765C104.216 15.7029 105.16 15.7339 105.3 15.6176L105.509 15.827C105.648 15.9667 105.656 15.7339 105.656 15.6641C105.656 15.4004 105.733 15.2762 106.074 15.4547L106.128 15.4857C106.221 15.4779 106.321 15.3461 106.368 15.1909L106.608 15.3538L106.67 15.4004C106.886 15.315 107.119 15.284 107.173 15.3305C107.227 15.3771 107.444 15.509 107.498 15.4934L107.544 15.4779C107.993 15.3305 108.45 15.1909 108.891 15.0435L109.162 14.9504C109.448 14.834 109.82 14.6711 109.99 14.578L110.23 14.6789L110.4 14.7487C110.563 14.5703 110.764 14.4384 110.849 14.4461H110.919L111.027 14.4694C111.492 14.3918 111.902 14.3065 111.949 14.2755C111.995 14.2444 112.219 14.291 112.359 14.4229C112.498 14.5548 112.901 14.1513 113.048 14.1513C113.195 14.1513 113.559 13.9186 113.659 13.9264C113.76 13.9341 114.085 13.8333 114.147 13.7169C114.209 13.6005 114.573 13.7867 114.603 13.7402C114.634 13.6936 114.975 13.4997 115.23 13.5075H115.501L115.633 13.4919C115.772 13.4609 116.09 13.2825 116.337 13.0963L116.686 13.1584L116.949 13.2049C117.235 13.1661 117.576 13.0963 117.707 13.0497C117.839 13.0032 118.234 12.7937 118.396 12.7627L118.574 12.8015C118.985 12.8946 119.286 12.7705 119.906 12.3903L119.952 12.3593C120.045 12.3826 120.424 12.3593 120.796 12.3127L121.013 12.1731L121.074 12.1343C121.191 12.1343 121.268 12.2041 121.245 12.2662L121.229 12.3283L121.198 12.4757C121.245 12.6619 121.392 12.6463 121.516 12.4369L121.694 12.305L121.872 12.1654C122.143 12.0723 122.297 12.0723 122.22 12.1654C122.143 12.2584 122.375 12.4834 122.824 12.3748C123.273 12.2662 124.364 12.1654 124.202 12.111C124.039 12.0567 123.497 12.0645 123.366 12.1576L123.226 12.2119L123.126 12.2507C122.986 12.2429 122.87 12.1809 122.878 12.1266C122.886 12.0723 123.095 11.8706 123.28 11.7775C123.466 11.6844 124.147 11.6921 124.194 11.6689C124.24 11.6456 124.387 11.5292 124.442 11.599C124.496 11.6689 124.976 11.6844 125.425 11.537L125.703 11.3818C125.912 11.2654 126.005 11.2654 126.23 11.3741C126.524 11.5137 126.872 11.5215 127.151 11.2577L127.244 11.1724C127.429 11.1336 127.723 11.118 127.886 11.1258C128.049 11.1336 128.652 11.0405 128.892 11.1646L129.14 10.9939L129.349 10.8543L129.899 10.7612C129.899 10.7612 130.2 10.7612 130.495 10.7612C130.789 10.7612 131.625 10.7146 131.694 10.6681C131.764 10.6215 132.166 10.5983 132.406 10.7534C132.646 10.9086 133.552 10.5983 133.707 10.5828L133.838 10.606C133.985 10.6371 134.163 10.7689 134.256 10.7302C134.372 10.6836 134.396 10.4974 134.496 10.4043L134.574 10.3345C134.713 10.3035 134.907 10.3112 134.992 10.35C135.077 10.3888 135.332 10.3655 135.394 10.3112C135.456 10.2569 135.719 10.1716 135.797 10.2104H135.874C136.106 10.2337 136.4 10.3035 136.563 10.2104C136.826 10.0785 137.027 9.98541 137.291 10.1716L137.329 10.1949C137.391 10.1949 137.531 10.125 137.647 10.0242C137.763 9.92335 138.421 10.063 138.606 10.0707C138.792 10.0785 139.28 9.96989 139.303 9.83025C139.326 9.69061 139.853 9.85352 140.007 9.94662C140.162 10.0397 140.944 10.0242 141.06 10.0863C141.176 10.1483 141.463 9.93886 141.563 9.97765C141.664 10.0164 142.004 10.0009 142.121 9.90007C142.237 9.79922 142.709 9.62855 142.972 9.71389L143.119 9.80698L143.584 10.1173C143.421 9.83025 143.475 9.6751 143.7 9.7837C143.924 9.89231 144.636 9.97765 144.706 10.0242C144.776 10.0707 145.016 10.1794 145.062 10.1173C145.108 10.0552 145.387 9.6751 145.55 9.4346L145.952 9.70613C146.184 9.86128 146.626 9.65958 146.889 9.91559L146.935 9.95438C147.074 9.9311 147.322 9.84577 147.485 9.76043C147.647 9.6751 148.158 9.69061 148.452 9.72164L148.715 9.74492L148.87 9.76043C149.048 9.71388 149.358 9.65958 149.551 9.62855C149.745 9.59752 150.697 9.70613 150.852 9.68285C151.007 9.65958 151.456 9.62855 151.479 9.68285C151.502 9.73716 151.719 9.90783 151.881 9.90007C152.044 9.89231 152.175 9.50442 152.222 9.49667C152.268 9.48891 152.709 9.582 153.135 9.66734L153.507 9.582L153.607 9.55873C153.708 9.5277 154.018 9.55097 154.296 9.60528C154.575 9.65958 155.457 9.64406 155.751 9.79146L156.022 9.57424C156.208 9.42685 156.301 9.32599 156.347 9.65182C156.371 9.80698 156.595 9.77595 156.75 9.66734L156.897 9.57424C157.114 9.57424 157.439 9.51218 157.625 9.45788L157.81 9.42685H157.857C157.934 9.49667 158.058 9.61303 158.143 9.6751C158.228 9.73716 158.662 9.73716 158.925 9.73716L158.964 9.70613L159.219 9.50442C159.413 9.63631 159.676 9.71388 159.8 9.68285L159.916 9.63631L160.094 9.57424C160.55 9.53546 161.116 9.46563 161.348 9.40357C161.58 9.34151 162.377 9.48115 162.633 9.54321L162.842 9.41133L163.043 9.28721C163.244 9.34927 163.67 9.3803 163.987 9.36478C164.305 9.34927 165.141 9.42685 165.257 9.34927L165.357 9.30272L165.388 9.28721C165.388 9.28721 165.473 9.27945 165.497 9.33375C165.52 9.38806 165.737 9.47339 165.891 9.31824C166.046 9.16308 166.89 9.34927 167.13 9.31048C167.37 9.27169 167.95 9.56649 167.966 9.55873C167.981 9.55097 168.19 9.46563 168.407 9.39581C168.624 9.32599 169.963 9.3803 170.156 9.39581L170.319 9.34927L170.373 9.33375C170.404 9.17084 170.489 9.10102 170.559 9.18635C170.628 9.27169 170.938 9.37254 171.054 9.3803C171.17 9.38806 171.612 9.24066 171.867 9.14756C172.122 9.05447 172.935 9.17084 173.059 9.20963C173.183 9.24842 173.748 9.18635 173.972 9.24066H174.174L174.266 9.22514C174.359 9.06223 174.537 9.00017 174.661 9.0855C174.785 9.17084 175.141 9.16308 175.242 9.0855C175.342 9.00792 175.853 9.06999 176.101 8.91483L176.31 9.21739C176.31 9.21739 176.581 9.16308 176.829 9.12429C177.076 9.0855 177.657 9.00792 177.796 8.97689C177.935 8.94586 178.4 8.99241 178.547 9.09326C178.694 9.19411 179.22 8.95362 179.406 9.00792C179.592 9.06223 180.258 8.92259 180.389 8.92259C180.521 8.92259 180.954 9.04671 181.109 9.09326L181.272 8.99241C181.349 8.9381 181.511 8.93035 181.62 8.96138L181.844 9.01568C182.084 9.10102 182.479 9.15532 182.734 9.12429L182.959 9.07774L183.292 9.00792C183.648 9.04671 184.259 9.02344 184.639 8.96138L184.91 9.2329L185.451 9.02344L185.49 8.99241C185.536 8.96138 185.916 8.96138 186.349 8.99241C186.783 9.02344 187.905 9.28721 187.99 9.30272C188.075 9.31824 188.524 9.18635 188.78 9.0855C189.035 8.98465 189.755 9.2329 189.786 9.24066C189.817 9.24842 190.181 9.28721 190.514 9.31824C190.846 9.34927 191.706 9.71388 191.721 9.66734C191.737 9.62079 191.76 9.44236 191.791 9.36478C191.822 9.28721 192.209 9.38806 192.418 9.36478C192.627 9.34151 193.184 9.38806 193.13 9.57424C193.076 9.76043 193.966 9.83801 193.943 9.76819C193.919 9.69837 193.943 9.46563 194.051 9.4346C194.159 9.40357 194.477 9.48115 194.655 9.54321C194.833 9.60528 195.483 9.51994 195.622 9.55097C195.762 9.582 196.257 9.69837 196.389 9.7294C196.52 9.76043 196.923 9.6751 197.046 9.59752C197.17 9.51994 197.573 9.75267 197.673 9.75267C197.774 9.75267 198.122 9.70613 198.254 9.72164C198.386 9.73716 198.796 9.88456 198.958 9.92335L199.121 9.83801L199.175 9.80698C199.338 9.91559 199.291 10.1173 199.074 10.2492L199.554 10.2647C199.787 10.2724 199.98 10.2647 199.926 10.0087L199.895 9.83801C200.065 9.78371 200.414 9.79922 200.669 9.86904L200.754 10.0397C200.839 10.2104 200.669 10.2724 200.46 10.2724H200.437C200.414 10.4276 200.514 10.5595 200.677 10.575L200.739 10.5207C200.893 10.3966 200.971 10.1949 201.141 10.094L201.304 10.0009C201.575 9.97765 201.799 10.0397 201.807 10.1483C201.815 10.2569 202.016 10.6215 202.233 10.7302C202.449 10.8388 203.099 10.5983 203.123 10.5983C203.146 10.5983 203.409 10.6526 203.68 10.7224C203.951 10.7922 204.64 10.6991 204.555 10.7534C204.47 10.8077 204.338 11.1258 204.322 11.312V11.6766C204.322 11.8938 204.446 12.1188 204.593 12.1731C204.74 12.2274 205.12 12.5222 205.112 12.7006C205.104 12.8791 204.539 13.0653 204.539 12.9411C204.539 12.817 204.47 12.4369 204.384 12.5145C204.299 12.592 204.137 12.8713 204.144 13.0265C204.152 13.1816 204.601 13.4764 204.795 13.4144C204.988 13.3523 205.538 13.2825 205.46 13.4144C205.383 13.5462 205.437 13.8255 205.476 13.9264C205.514 14.0272 205.638 14.3841 205.693 14.5005H205.77C206.025 14.547 206.041 14.6711 205.948 14.803L205.855 14.9271C205.584 14.8108 205.352 14.6866 205.336 14.6556C205.321 14.6246 205.205 14.5082 205.182 14.6246C205.158 14.7409 205.004 15.0435 204.903 14.9039C204.802 14.7642 204.748 14.547 204.733 14.4694C204.717 14.3918 204.524 14.2212 204.446 14.3065C204.369 14.3918 204.23 14.6401 204.106 14.6944C203.982 14.7487 203.533 15.0513 203.185 15.0978L202.844 15.0435L202.511 14.9892C202.124 15.0047 201.76 14.9892 201.706 14.9349C201.652 14.8806 201.404 14.7797 201.304 14.834C201.203 14.8883 200.847 15.0823 200.777 15.1521C200.708 15.2219 200.321 15.1211 200.174 15.1987C200.027 15.2762 199.431 15.1288 199.276 15.2219C199.121 15.315 198.548 15.0125 198.355 14.9737C198.161 14.9349 197.519 15.1211 197.255 15.0435H196.992L196.807 15.028C196.598 15.028 196.373 15.028 196.319 15.028C196.265 15.028 195.599 15.059 194.964 15.0745C194.33 15.09 192.48 15.1676 192.271 15.1288C192.062 15.09 191.148 15.1831 190.784 15.1831L190.475 15.0978L190.274 15.0435C190.142 15.1056 189.894 15.1987 189.732 15.253L189.647 15.2142L189.074 14.9194C188.4 14.9969 187.657 15.0357 187.425 14.9969C187.193 14.9582 186.342 15.0357 186.094 15.0357C185.846 15.0357 184.979 15.0513 184.716 15.0357C184.453 15.0202 183.818 14.9194 183.733 15.1754L183.361 15.0357L183.083 14.9349C182.796 14.9892 182.355 14.9892 182.092 14.9349L181.883 14.9892L181.635 15.0513C181.411 14.9969 181.132 15.0125 181.008 15.09C180.885 15.1676 180.343 14.834 180.056 14.7332C179.77 14.6323 178.849 15.0357 178.57 15.0357C178.291 15.0357 177.486 15.0202 177.355 14.9349C177.223 14.8496 176.635 15.0202 176.472 15.0435C176.31 15.0668 175.776 15.0823 175.652 15.1211C175.528 15.1599 175.025 15.1211 174.862 15.1133C174.7 15.1056 174.135 15.0745 173.98 15.1133C173.825 15.1521 173.446 14.9504 173.423 14.9504C173.4 14.9504 172.865 15.059 172.293 15.1909C171.72 15.3228 170.613 15.2142 170.466 15.2142C170.319 15.2142 169.653 15.253 169.289 15.2995C168.926 15.3461 167.563 15.09 167.006 15.059C166.449 15.028 164.993 15.3693 164.932 15.3616C164.87 15.3538 164.305 15.2374 163.825 15.1443L163.43 15.3538C163.244 15.4469 163.144 15.1133 162.965 15.3538L162.849 15.509C162.679 15.3926 161.766 15.2607 160.814 15.2219L159.962 15.284L159.745 15.2995C159.536 15.284 159.111 15.2297 158.793 15.1909L158.701 15.2917C158.492 15.509 158.391 15.1754 158.228 15.2917C157.988 15.4624 157.772 15.2297 157.539 15.2064L157.292 15.1831C157.052 15.2219 156.742 15.3461 156.611 15.4547C156.479 15.5633 155.929 15.3383 155.751 15.4004C155.573 15.4624 154.977 15.1909 154.799 15.1443C154.621 15.0978 154.172 15.3461 154.141 15.3538C154.11 15.3616 153.607 15.2995 153.058 15.2374L152.547 15.3228L152.291 15.3616C152.021 15.3616 151.657 15.4004 151.479 15.4624C151.301 15.5245 150.705 15.2607 150.395 15.284C150.085 15.3073 148.963 15.3538 148.584 15.2917L148.274 15.5322L148.212 15.5788C147.972 15.4857 147.353 15.4081 146.827 15.3926C146.3 15.3771 144.861 15.6176 144.721 15.5555C144.582 15.4934 144.079 15.6796 143.94 15.7184C143.8 15.7572 143.444 15.6098 143.421 15.6253C143.398 15.6408 143.135 15.7262 142.902 15.8115L142.686 15.8348L142.523 15.8503C142.337 15.796 142.02 15.7495 141.826 15.7495L141.695 15.8115L141.432 15.9356C141.176 15.8581 140.851 15.8115 140.712 15.8193C140.573 15.827 140.108 15.9124 139.992 16.021C139.876 16.1296 139.365 15.9046 139.226 15.8891C139.086 15.8736 138.645 16.083 138.452 16.1141C138.258 16.1451 137.546 16.1141 137.353 16.1373C137.159 16.1606 136.261 16.2692 135.797 16.3158C135.332 16.3623 133.893 16.4166 133.622 16.4089C133.351 16.4011 132.592 16.6261 132.406 16.6261C132.221 16.6261 131.532 16.7502 131.3 16.7735C131.067 16.7968 130.27 16.9209 130.046 16.9131C129.821 16.9054 129.063 17.1691 128.792 17.2312C128.521 17.2933 127.514 17.301 127.205 17.3165C126.895 17.332 126.036 17.5803 125.928 17.5958C125.819 17.6113 125.394 17.6268 125.216 17.6268C125.038 17.6268 124.558 17.8208 124.403 17.8363C124.248 17.8518 123.544 17.9837 123.18 18.0923C122.816 18.2009 121.469 18.4337 121.082 18.4802C120.695 18.5267 119.689 18.9069 119.557 18.8215C119.426 18.7362 119.07 19 118.969 18.9922C118.868 18.9845 118.505 19.1086 118.365 19.1551C118.226 19.2017 117.816 19.3801 117.692 19.4034C117.568 19.4267 117.026 19.5973 116.724 19.6749C116.422 19.7525 115.378 20.0706 115.076 20.1481C114.774 20.2257 113.481 20.6058 112.916 20.8541L112.343 20.9394L112.103 20.9782C111.825 21.0403 111.492 21.1411 111.36 21.2032C111.229 21.2653 110.78 21.3351 110.64 21.3739C110.501 21.4127 109.982 21.5057 109.773 21.4747C109.564 21.4437 108.458 21.9014 107.668 22.1109L106.91 22.1419C106.693 22.1496 106.468 22.1264 106.259 22.1729C106.012 22.2195 105.787 22.3669 105.539 22.3901L105.369 22.4057C105.168 22.3126 104.897 22.3126 104.765 22.4057C104.634 22.4987 104.053 22.3126 103.914 22.266C103.775 22.2195 103.318 22.0876 103.225 22.0643C103.132 22.041 102.869 22.0798 102.776 22.0255C102.683 21.9712 102.265 22.1031 102.157 22.1419C102.049 22.1807 101.375 22.0721 100.857 21.9324L100.392 21.7773L100.338 21.7618C100.322 21.6376 100.237 21.5988 100.152 21.6687C100.067 21.7385 99.5175 21.8393 99.1769 21.7074C98.8363 21.5756 98.0003 20.7377 97.8842 20.4352L97.3966 20.3343L97.1566 20.2878C96.9941 19.9232 96.7696 19.5197 96.669 19.3801C96.5684 19.2405 96.1736 18.7285 95.9724 18.5655C95.7711 18.4026 95.7324 17.7587 95.6937 17.7277C95.655 17.6967 95.4925 17.6113 95.4073 17.5803C95.3222 17.5493 95.059 17.2002 94.8268 16.8821L94.3778 16.7347C93.9908 16.6028 93.6967 16.3003 93.3329 16.1141C93.2323 16.0598 93.0078 16.1684 92.8452 16.1917C92.5743 16.2227 92.3034 16.2304 92.0325 16.277L91.7538 16.3313C91.4597 16.4321 91.1114 16.5408 90.9798 16.5795C90.8482 16.6183 90.438 16.564 90.3141 16.5097C90.1903 16.4554 89.8807 16.7269 89.6639 16.6959H89.4627C89.2073 16.6726 88.9286 16.6261 88.6886 16.6804L88.2474 16.7812C87.7675 16.8976 87.218 16.9907 87.0399 16.9985C86.8619 17.0062 86.6374 17.4174 86.4981 17.4562C86.3588 17.495 85.8324 17.6036 85.6544 17.6113C85.4764 17.6191 84.8726 17.7665 84.6095 17.8751C84.3463 17.9837 83.5335 17.9992 83.4948 18.0147C83.4561 18.0302 83.3091 18.1389 83.1775 18.2242C83.0459 18.3095 82.4808 18.4724 82.3338 18.5578C82.1867 18.6431 81.4901 18.7207 81.2424 18.7983C80.9947 18.8759 80.2361 19.1551 80.0736 19.1551C79.911 19.1551 79.4311 19.287 79.1215 19.1396L79.2067 19.5973C79.2067 19.5973 79.1138 19.6827 79.0596 19.6827L78.75 19.7059C78.5023 19.8689 78.1307 20.055 77.9217 20.1093C77.7128 20.1636 76.9542 20.3343 76.722 20.4041C76.4898 20.474 75.7777 20.6601 75.6616 20.6834C75.5454 20.7067 75.2668 20.8929 75.0888 20.761C74.9107 20.6291 74.5315 21.1644 74.4386 21.2265H74.3689C73.9664 21.1566 73.6878 21.3971 73.3472 21.4747L73.1691 21.5135C73.0221 21.5988 72.8518 21.6687 72.7821 21.6609C72.7125 21.6531 72.5344 21.7152 72.5344 21.8238C72.5344 21.9324 72.1629 21.7928 72.0932 21.8238C72.0236 21.8548 71.5824 21.8626 71.2882 21.8161L71.2108 22.1807L71.1721 22.3591C70.8161 22.3901 70.2897 22.4522 70.0033 22.491C69.7169 22.5298 69.0203 22.8789 68.9429 22.8556C68.8655 22.8323 68.1224 22.8246 67.4722 22.8944L67.271 23.4995L67.1858 23.7478C67.0465 23.5926 66.7678 23.515 66.5666 23.5771C66.3653 23.6391 65.6687 23.9029 65.4597 24.0658L65.2585 23.7788C65.2585 23.7788 65.0649 23.8021 64.9953 23.8486L64.6315 24.0969C64.2135 24.1899 63.7413 24.3373 63.5865 24.4227C63.4317 24.508 62.7738 24.446 62.5029 24.6399H62.1468C61.9378 24.6321 62.2087 24.989 61.8527 24.9037L61.7134 24.8726C61.5508 24.8726 61.3496 24.9269 61.2567 24.9968C61.1638 25.0666 60.8542 24.9114 60.7226 24.9735C60.591 25.0355 60.1575 25.3303 60.0569 25.532L59.7009 25.4079L59.5925 25.3691C59.3758 25.5243 59.0507 25.6562 58.8726 25.6639L58.7256 25.6484L58.5321 25.6329C58.3308 25.6484 57.6342 25.7958 56.984 25.9432L56.4499 26.1992C56.3493 26.2458 56.3106 26.3776 56.148 26.2458L55.9545 26.0984C55.8384 26.2458 55.6294 26.432 55.4823 26.5018H55.0257C54.747 26.6414 54.4916 26.7733 54.4606 26.7966C54.4296 26.8198 54.0581 26.8974 53.6788 26.9672L53.346 27.1379L53.0441 27.2931C52.6339 27.4249 52.2546 27.4793 52.2081 27.4172C52.1617 27.3551 51.8289 27.4249 51.7128 27.3551C51.5967 27.2853 51.4496 27.6344 51.3257 27.6577H51.1322C51.0548 27.6111 50.8304 27.681 50.6368 27.7973L50.4356 27.8904C50.2111 27.999 50.0099 28.0223 49.7699 28.0456H49.6461C49.5222 28.1232 49.2513 28.3093 49.0423 28.48C48.8333 28.6507 47.9896 28.3947 47.8348 28.4102C47.68 28.4257 47.262 28.6507 47.084 28.6817C46.906 28.7127 46.3177 28.8524 46.1552 28.8291C45.9926 28.8058 45.7217 29.186 45.5359 29.2092C45.3502 29.2325 44.8161 29.1161 44.7077 29.0541C44.5993 28.992 44.2897 29.3411 44.1272 29.4109C43.9646 29.4808 43.7634 29.4265 43.686 29.3566C43.6086 29.2868 43.1751 29.442 43.0203 29.5196C42.8655 29.5971 42.4165 29.698 42.3469 29.5971C42.2772 29.4963 41.8128 29.698 41.6889 29.76L41.6657 29.7445C41.3716 29.4808 41.2245 29.729 41.0465 29.8531L41.0155 29.8764C40.9536 29.8687 40.822 29.9152 40.7137 29.985C40.6053 30.0548 40.3034 29.8609 40.2725 29.8066C40.2415 29.7523 40.0402 29.6825 39.9087 29.8221C39.7771 29.9617 39.243 29.8299 39.2739 29.7911C39.3049 29.7523 39.2043 29.667 39.003 29.7057C38.8018 29.7445 38.1748 29.5894 38.0432 29.5583C37.9116 29.5273 37.4008 29.5583 37.246 29.5583C37.0912 29.5583 36.1236 29.5583 35.4347 29.5351C34.7458 29.5118 33.0971 29.1394 33.0197 29.0075C32.9423 28.8757 32.1528 28.7748 31.8432 28.6662L31.6961 28.48L31.5103 28.2473C31.2317 28.0844 30.9762 27.9214 30.9453 27.8827C30.9143 27.8439 30.6511 27.7197 30.4809 27.6499C30.3106 27.5801 29.9158 27.1534 29.7842 27.0526C29.6526 26.9517 29.6526 26.4707 29.5443 26.3311C29.4359 26.1915 29.2656 25.726 29.3121 25.6174C29.3585 25.5088 28.987 25.4079 28.9792 25.3614L28.9947 25.3226C29.1263 25.0666 28.956 24.8959 28.7083 24.7951L28.569 24.7407C28.5922 24.6864 28.7393 24.5623 28.8941 24.4692L28.9173 24.2986L28.9328 24.1822C29.0644 23.9727 29.0411 23.8719 28.8786 23.965C28.716 24.0581 28.3368 24.2132 28.3058 24.1899C28.2748 24.1667 28.4374 23.8021 28.4916 23.6547C28.5458 23.5073 28.2284 23.1194 28.1742 23.0573C28.12 22.9952 28.0813 22.747 27.8646 22.6617V22.6151L27.9343 22.3203C27.7795 22.0488 27.5937 21.5988 27.5163 21.3118C27.4389 21.0248 26.9048 20.218 26.8506 20.055L26.7809 19.9076L26.6803 19.6749C26.5178 19.4344 26.2546 18.7595 26.092 18.1699V18.1156C26.1075 17.9061 26.1772 17.6734 26.1075 17.4872L25.8521 16.7968C25.9759 16.0443 26.0301 15.3305 25.9759 15.2219L26.0069 15.1288L26.0456 15.0047C26.1153 14.8728 26.2236 14.4772 26.2856 14.1203L26.9512 13.4997L26.9745 13.4764C26.959 13.4221 26.9822 13.3057 27.0364 13.2049C27.0906 13.104 26.9512 12.848 27.0673 12.786C27.1834 12.7239 27.4389 12.1576 27.6866 11.8318L27.8259 11.5215C27.9188 11.312 27.9652 11.0948 28.1897 10.9629L28.538 10.7612C28.507 10.4354 28.569 10.1483 28.6928 10.125C28.8167 10.1018 29.1185 10.0087 29.0179 9.97765C28.9173 9.94662 28.7315 9.82249 28.8089 9.79922C28.8863 9.77595 29.0721 9.69837 29.0644 9.6751C29.0566 9.65182 28.9173 9.55097 28.8012 9.48115C28.6851 9.41133 28.1045 9.55097 27.8723 9.62855C27.6401 9.70613 26.8042 10.0009 26.4868 10.0707C26.1695 10.1406 25.4341 10.5517 25.3567 10.5207L25.2793 10.4819L24.5362 10.6914C24.3659 10.7689 24.2034 10.862 24.0254 10.9319L23.9093 10.9784C23.7699 11.025 23.6151 11.1646 23.5687 11.2887L23.3597 11.312L23.2358 11.3275C23.1043 11.3818 22.725 11.5059 22.3844 11.599C22.0438 11.6921 21.0763 12.2041 20.8441 12.274L20.6351 12.336L20.457 12.3903C20.2635 12.4601 19.8301 12.6541 19.4895 12.8248C19.1489 12.9954 17.9724 13.5152 17.6318 13.6393C17.2912 13.7635 16.3004 14.1746 16.1921 14.291C16.0837 14.4074 15.5728 14.5858 15.4026 14.6478C15.2323 14.7099 14.6363 14.8961 14.435 14.9504C14.2338 15.0047 13.6842 15.1754 13.6919 15.2219C13.6997 15.2685 13.3591 15.5478 12.9102 15.7339C12.4612 15.9201 10.8202 16.5873 10.232 16.82L9.79851 17.1924C9.54308 17.4096 9.33409 17.6811 9.02447 17.8673L8.73034 18.0458C8.41298 18.2475 7.93308 18.5966 7.66216 18.8215C7.39125 19.0465 6.32307 19.4344 6.19923 19.5197C6.07538 19.6051 5.64192 19.768 5.45615 19.7137L5.30134 19.6827L4.97624 19.6284C4.62019 19.5818 4.19446 19.6051 4.03192 19.6827C3.86937 19.7602 3.44365 19.5353 3.41268 19.5663C3.38172 19.5973 3.11081 19.6206 2.86312 19.6206L2.92504 19.3724C2.94826 19.2948 3.01018 19.2327 3.04114 19.1551C3.12629 18.9302 3.31206 18.7207 2.80119 18.6043C2.58446 18.5578 2.24388 18.3483 2.29807 18.0303C2.32903 17.8441 2.1897 17.8363 2.00393 17.782L1.85686 17.7432C1.76398 17.557 1.37696 17.1381 1.01316 16.8045L1.25311 16.3546C1.21441 16.3158 0.920276 16.1063 0.602919 15.8813L0.571958 15.4857L0.540996 15.1676C0.293303 14.8263 0.0610916 14.3841 0.03013 14.1824C-0.000831615 13.9807 0.107534 13.3601 0.200419 13.2282L0.00690879 13.0963C0.00690879 13.0963 -0.0163124 12.9644 0.0223896 12.9411L0.138496 12.8636C0.285563 12.8015 0.324265 12.6696 0.239121 12.561L0.393929 12.4446C0.479073 12.3826 0.525515 12.2584 0.540996 12.1576C0.556477 12.0645 0.463592 11.9404 0.510035 11.8628C0.579698 11.7387 0.734506 11.6533 0.842872 11.5447L1.07508 11.312C1.33052 11.0637 1.46984 10.7612 1.3847 10.6448C1.29956 10.5285 1.83364 10.3888 1.94201 10.288C2.05037 10.1871 2.49158 10.0707 2.4761 10.0164C2.46061 9.96213 2.66961 9.73716 2.80119 9.62079C2.93278 9.50442 3.38172 9.25617 3.44365 9.20963C3.50557 9.16308 3.60619 8.9381 3.6449 8.87604C3.6836 8.81398 3.93129 8.64331 4.13254 8.48815C4.33379 8.333 5.13105 8.12353 5.2549 8.06923C5.37874 8.01493 5.64966 7.68134 5.78125 7.596C5.91283 7.51067 6.22245 7.2469 6.24567 7.30121C6.26889 7.35551 6.39274 7.44085 6.41596 7.26242C6.43918 7.08399 7.10485 6.70386 7.39125 6.47112L7.79375 6.64179C7.79375 6.64179 7.9176 6.60301 7.9563 6.55646C8.08014 6.43233 8.19625 6.30045 8.30462 6.16081C8.44394 5.9979 8.52135 6.09875 8.68389 6.16081C8.88514 6.23839 9.13284 6.20736 8.84644 5.95135C8.8387 5.94359 9.01673 5.76516 9.14058 5.7031C9.2025 5.67207 9.38827 5.78068 9.41923 5.7574L9.88366 5.33848C10.5726 5.14454 11.184 4.9118 11.2382 4.82647L11.3156 4.75665L11.3543 4.72562C11.4472 4.74113 11.6717 4.81095 11.8575 4.88853L11.9271 4.71786L11.9658 4.62477C11.8497 4.45409 11.8575 4.32221 11.9968 4.32997C12.1361 4.33773 12.5851 4.28342 12.7244 4.25239C12.8637 4.22136 13.3127 3.8645 13.4829 3.62401L13.7152 3.50764L13.839 3.44558C14.1254 3.45334 14.7291 3.38352 15.1858 3.28267L15.3097 2.8715C15.3097 2.8715 15.449 2.8715 15.5187 2.8715C15.6348 2.87926 15.7973 2.94132 15.867 2.89478L15.9986 2.8172C15.9753 2.66204 16.1147 2.56895 16.3159 2.60774L16.4785 2.57671C16.6642 2.53792 16.8268 2.43707 16.9816 2.34397L17.1441 2.24312C17.2912 2.10348 17.477 2.01039 17.5544 2.0259C17.6318 2.04142 17.895 1.92505 18.0266 1.80093L18.1736 1.76989L18.3129 1.73886C18.4987 1.79317 18.7464 1.83196 18.8625 1.81644L18.9399 1.76989L19.0792 1.68456C19.2108 1.56819 19.3502 1.42855 19.3889 1.382C19.4276 1.33546 19.6288 1.29667 19.7604 1.382L19.8533 1.41304L20.1629 1.52164C20.4183 1.36649 20.9215 1.18806 21.2775 1.13375L21.533 0.994114L21.6878 0.908778C21.8735 0.776895 22.1135 0.722591 22.2218 0.792411C22.3302 0.862231 22.6244 0.559677 22.7792 0.544161C22.934 0.528646 23.4216 0.489857 23.5455 0.396763C23.6693 0.303669 24.0718 0.559677 24.1724 0.567435C24.2731 0.575192 24.7297 0.396763 25.0007 0.295912H25.318C25.527 0.303669 25.7824 0.295912 25.9759 0.319185C26.1772 0.342458 26.1772 0.319185 26.1927 0.202818V0.156271C26.2391 0.101967 26.3707 0.117482 26.4945 0.179545C26.6184 0.241607 27.0132 0.0476619 27.1138 0.0399041C27.2144 0.0321463 28.0349 0.0243885 28.7083 0.00111507C29.3817 -0.0221583 31.1775 0.326943 31.2781 0.295912C31.3787 0.26488 31.7038 0.342458 31.8432 0.427794L32.0367 0.326943C32.145 0.272638 32.3231 0.311427 32.4701 0.295912C32.7488 0.272638 33.0429 0.44331 33.3216 0.233849L33.3525 0.210576C33.6312 0.389005 33.8711 0.458825 33.8944 0.357974C33.9176 0.257123 34.4749 0.241607 34.6839 0.280396C34.8929 0.319185 35.4889 0.707075 35.6514 0.8312C35.814 0.955325 36.4255 1.07169 36.4719 1.07169C36.5184 1.07169 36.7815 1.22685 37.0447 1.38976C37.3079 1.55268 37.78 2.1733 37.7181 2.25864C37.6562 2.34397 37.9736 2.61549 38.0432 2.70083C38.1129 2.78617 38.3606 3.08096 38.4457 3.15854C38.5309 3.23612 38.6702 3.62401 38.7012 3.80244C38.7321 3.98087 38.856 4.5084 38.9024 4.43082C38.9488 4.35324 39.0572 4.32221 39.0882 4.50064C39.1191 4.67907 39.3049 5.28418 39.2739 5.48588C39.243 5.68758 39.5139 6.35476 39.6455 6.67283C39.7771 6.9909 40.1718 7.86753 40.3189 7.8908C40.466 7.91407 41.0001 8.55021 41.1781 8.59676C41.3561 8.64331 41.1626 9.04671 41.271 9.11653C41.3793 9.18635 41.5883 9.40357 41.5419 9.48115C41.4954 9.55873 41.5341 9.7837 41.5728 9.86904C41.6115 9.95438 41.8438 10.8388 42.0063 10.9784H41.5651C41.5341 11.0327 41.4954 11.1801 41.48 11.2965C41.4645 11.4128 41.5032 11.9404 41.5496 12.2041L41.2864 12.4369C41.1084 12.592 41.062 12.8868 41.062 13.1196V13.3057C40.9072 13.3756 40.6672 13.5773 40.5279 13.7635L40.4505 13.9496L40.3808 14.1203C40.2957 14.3143 40.1641 14.5548 40.0789 14.6478C39.9938 14.7409 39.7771 15.1056 39.7461 15.2297C39.7151 15.3538 39.5603 15.6564 39.5913 15.8348C39.6223 16.0132 38.9953 16.2227 38.9334 16.3546C38.8714 16.4864 38.5309 17.014 38.4148 17.239C38.2987 17.4639 37.7568 18.3406 37.5478 18.7129L37.3388 19.0388C37.1299 19.3646 36.8744 19.6749 36.6654 20.0085L36.6112 20.0938C36.6345 20.2335 36.9441 20.2955 37.2847 20.2335C37.6252 20.1714 38.5696 20.249 38.7089 20.2335L38.7631 20.1016L38.856 19.8844C39.0185 19.9852 39.212 20.024 39.2817 19.9775C39.3513 19.9309 39.8158 19.8301 40.0867 19.7913C40.3576 19.7525 40.9536 19.5042 41.0001 19.6671C41.0465 19.8301 41.627 19.5663 41.9134 19.4965C42.1998 19.4267 42.9429 18.9922 43.0977 18.9612C43.2525 18.9302 43.7169 18.7129 43.8563 18.7129C43.9956 18.7129 44.3903 18.5811 44.4755 18.5267C44.5606 18.4724 44.8857 18.5888 44.9399 18.5733C44.9941 18.5578 45.1953 18.4492 45.296 18.4104C45.3966 18.3716 45.7914 18.3406 45.9229 18.3483C46.0545 18.3561 46.8131 17.9682 47.3627 17.7044L47.9819 17.6424L48.3767 17.6036C48.8024 17.526 49.2591 17.4251 49.3829 17.3786L49.4913 17.3243L49.7622 17.1847C50.095 17.1536 50.4046 17.0838 50.4433 17.0217C50.482 16.9597 50.6601 16.8123 50.7452 16.8123C50.8304 16.8123 51.1322 16.7812 51.2251 16.7735C51.318 16.7657 51.6818 16.502 51.8753 16.277L52.1927 16.5718C52.1927 16.5718 52.3707 16.533 52.4017 16.4864L52.7268 16.021L52.8196 15.9434Z" fill="#1B7FBD"/>
</svg>
